<svg width="8" height="5" viewBox="0 0 8 5" fill="none" xmlns="http://www.w3.org/2000/svg">
<path d="M1.1598 0.166656C0.953517 0.166656 0.755687 0.248601 0.609825 0.394462C0.463963 0.540324 0.382019 0.738155 0.382019 0.944434V1.39593L3.66463 3.03743C3.73213 3.07118 3.80656 3.08875 3.88202 3.08875C3.95748 3.08875 4.03191 3.07118 4.09941 3.03743L7.38202 1.39632V0.944434C7.38202 0.738155 7.30007 0.540324 7.15421 0.394462C7.00835 0.248601 6.81052 0.166656 6.60424 0.166656H1.1598Z" fill="#E2E8F0"/>
<path d="M7.38202 2.04849L4.36035 3.55933C4.21184 3.6336 4.04807 3.67226 3.88202 3.67226C3.71597 3.67226 3.5522 3.6336 3.40369 3.55933L0.382019 2.04849V4.05555C0.382019 4.26183 0.463963 4.45966 0.609825 4.60552C0.755687 4.75138 0.953517 4.83333 1.1598 4.83333H6.60424C6.81052 4.83333 7.00835 4.75138 7.15421 4.60552C7.30007 4.45966 7.38202 4.26183 7.38202 4.05555V2.04849Z" fill="#E2E8F0"/>
</svg>
