<svg width="7" height="7" viewBox="0 0 7 7" fill="none" xmlns="http://www.w3.org/2000/svg">
<path fill-rule="evenodd" clip-rule="evenodd" d="M3.37236 6.97158L3.37359 6.972C3.4547 7.0074 3.49999 6.99917 3.49999 6.99917C3.49999 6.99917 3.54528 7.0074 3.6268 6.972L3.62762 6.97158L3.63009 6.97035L3.6375 6.96706C3.67659 6.9489 3.71517 6.92968 3.7532 6.90942C3.82978 6.86989 3.93682 6.8106 4.06487 6.73114C4.32013 6.57304 4.6598 6.33343 5.00111 6.00446C5.68291 5.34737 6.382 4.32013 6.382 2.88201C6.382 2.50354 6.30746 2.12877 6.16262 1.77911C6.01779 1.42945 5.8055 1.11174 5.53788 0.844121C5.27026 0.576502 4.95255 0.364215 4.60289 0.21938C4.25323 0.0745454 3.87846 0 3.49999 0C3.12152 0 2.74676 0.0745454 2.39709 0.21938C2.04743 0.364215 1.72972 0.576502 1.4621 0.844121C1.19448 1.11174 0.982196 1.42945 0.837361 1.77911C0.692526 2.12877 0.617981 2.50354 0.617981 2.88201C0.617981 4.31972 1.31707 5.34737 1.99929 6.00446C2.28492 6.2788 2.59858 6.52237 2.93512 6.73114C3.06546 6.81208 3.19956 6.88682 3.33695 6.95512L3.36248 6.96706L3.36989 6.97035L3.37236 6.97158ZM3.49999 3.80837C3.74568 3.80837 3.9813 3.71077 4.15503 3.53705C4.32875 3.36332 4.42635 3.1277 4.42635 2.88201C4.42635 2.63632 4.32875 2.4007 4.15503 2.22698C3.9813 2.05325 3.74568 1.95565 3.49999 1.95565C3.25431 1.95565 3.01868 2.05325 2.84496 2.22698C2.67123 2.4007 2.57363 2.63632 2.57363 2.88201C2.57363 3.1277 2.67123 3.36332 2.84496 3.53705C3.01868 3.71077 3.25431 3.80837 3.49999 3.80837Z" fill="#E2E8F0"/>
</svg>
