<svg width="8" height="9" viewBox="0 0 8 9" fill="none" xmlns="http://www.w3.org/2000/svg">
<path d="M4 0.598999C1.79 0.598999 0 2.39 0 4.599C0 6.36667 1.146 7.86566 2.735 8.394C2.935 8.43166 3.00833 8.308 3.00833 8.20166C3.00833 8.10666 3.005 7.855 3.00333 7.52167C1.89067 7.763 1.656 6.985 1.656 6.985C1.474 6.52333 1.211 6.4 1.211 6.4C0.848667 6.152 1.239 6.157 1.239 6.157C1.64067 6.185 1.85167 6.569 1.85167 6.569C2.20833 7.18067 2.788 7.004 3.01667 6.90167C3.05267 6.643 3.15567 6.46667 3.27 6.36667C2.38167 6.26666 1.448 5.92267 1.448 4.39C1.448 3.95333 1.603 3.59667 1.85967 3.31667C1.81467 3.21567 1.67967 2.809 1.89467 2.258C1.89467 2.258 2.22967 2.15067 2.99467 2.668C3.31467 2.579 3.65467 2.535 3.99467 2.533C4.33467 2.535 4.67467 2.579 4.99467 2.668C5.75467 2.15067 6.08967 2.258 6.08967 2.258C6.30467 2.809 6.16967 3.21567 6.12967 3.31667C6.38467 3.59667 6.53967 3.95333 6.53967 4.39C6.53967 5.92667 5.60467 6.265 4.71467 6.36333C4.85467 6.48333 4.98467 6.72866 4.98467 7.10333C4.98467 7.63866 4.97967 8.06867 4.97967 8.19867C4.97967 8.30367 5.04967 8.42867 5.25467 8.38867C6.855 7.864 8 6.364 8 4.599C8 2.39 6.209 0.598999 4 0.598999Z" fill="#222222"/>
</svg>
