<?xml version="1.0" encoding="utf-8"?><!-- Uploaded to: SVG Repo, www.svgrepo.com, Generator: SVG Repo Mixer Tools -->
<svg width="800px" height="800px" viewBox="0 0 320 320" fill="none" xmlns="http://www.w3.org/2000/svg">
<path fill-rule="evenodd" clip-rule="evenodd" d="M251.823 153.742C251.839 153.102 251.847 152.461 251.847 151.818C251.847 138.096 248.047 125.077 241.235 113.386C240.929 113.854 240.598 114.326 240.255 114.806C236.73 119.727 226.811 118.014 222.163 117.212C220.839 116.983 219.943 116.828 219.745 116.922C218.853 117.345 208.51 130.885 208.51 130.885C209.528 130.314 210.301 129.547 211.077 128.778C212.382 127.484 213.693 126.185 216.178 125.808C219.621 125.285 221.644 125.253 224.204 127.5C224.52 127.777 224.835 128.028 225.135 128.265C226.414 129.279 227.406 130.065 226.879 131.731C226.325 133.482 225.619 135.16 224.918 136.826C223.926 139.186 222.943 141.521 222.42 144.002C222.334 144.41 222.243 144.82 222.151 145.23C221.357 148.783 220.553 152.385 223.312 155.003C226.342 157.879 228.901 155.709 232.077 153.016L232.229 152.888C234.025 151.366 233.385 149.498 232.764 147.687C232.128 145.829 231.513 144.032 233.567 142.733C234.904 141.886 237.159 141.056 238.471 141.886C241.992 144.114 246.543 147.97 251.823 153.742ZM250.311 166.802C250.062 166.94 249.812 167.075 249.564 167.209C247.128 168.526 244.886 169.737 245.605 172.351C246.047 173.959 246.95 174.661 248.147 174.92C249.018 172.259 249.742 169.551 250.311 166.802ZM45.1106 208.892C29.3907 193.222 20 173.389 20 151.818C20 101.108 71.9008 60 135.924 60C176.602 60 212.387 76.5956 233.075 101.705C232.942 101.7 232.809 101.694 232.675 101.689C229.049 101.555 224.86 104.472 222.495 106.119C221.459 106.841 220.773 107.319 220.637 107.19C220.511 107.07 220.893 106.447 221.464 105.517C222.909 103.163 225.561 98.8433 224.204 95.7656C222.25 91.3344 217.526 89.1172 212.611 90.2649C208.173 91.3013 205.796 94.4512 205.032 98.7275C204.677 100.712 205.676 102.863 206.46 104.552C207.003 105.722 207.443 106.671 207.261 107.19C206.815 108.459 193.841 120.73 193.841 120.73C193.606 117.895 193.025 115.096 190.764 113.114C188.067 110.748 185.489 108.912 181.847 108.459C179.203 108.131 178.058 110.073 176.937 111.976C175.797 113.91 174.681 115.803 172.038 115.229C171.691 115.154 171.353 115.088 171.024 115.025C169.338 114.697 167.892 114.416 166.688 113.114C164.851 111.127 165.806 108.819 166.823 106.36C167.615 104.445 168.445 102.438 168.025 100.42C166.894 94.9726 164.702 91.0444 159.108 89.4187C154.7 88.1377 151.869 88.7896 147.962 91.1112C145.187 92.7596 144.923 95.5838 144.669 98.3C144.397 101.205 144.137 103.987 140.828 105.074C139.098 105.642 136.804 105.511 135.017 105.409C133.743 105.336 132.728 105.277 132.357 105.497C131.892 105.773 131.453 106.032 131.035 106.278C125.037 109.814 123.624 110.648 119.872 117.768C118.842 119.725 120.304 123.299 121.711 126.741C123.408 130.89 125.026 134.846 122.102 135.539C118.607 136.369 115.285 134.985 112.065 133.645C109.255 132.475 106.523 131.337 103.821 131.731C98.9722 132.439 97.3117 137.703 98.0253 142.309C98.306 144.122 99.396 144.695 100.484 145.267C101.574 145.841 102.662 146.414 102.93 148.233C103.783 154.038 99.2691 159.1 93.5667 161.35C91.2781 162.253 89.0315 161.685 86.8364 161.13C84.4052 160.515 82.0371 159.917 79.745 161.35C76.9157 163.119 76.2271 165.208 75.298 168.027C75.1542 168.463 75.0047 168.917 74.8405 169.389C74.1357 171.419 74.3566 173.169 74.6852 174.89C74.6852 174.89 56.1144 181.66 54.3309 183.353C53.3784 184.257 48.9914 197.111 45.1106 208.892Z" fill="#FBAD36"/>
<path d="M68.0418 192.238C68.0418 192.238 73.6394 185.342 74.8405 181.66C75.6679 179.124 75.0934 177.029 74.6852 174.89M266.561 180.391C266.561 176.917 261.798 174.89 257.643 174.89C252.356 174.89 246.578 177.685 245.243 172.83C243.907 167.967 252.926 168.169 254.273 163.309C254.982 160.752 255.847 158.313 254.076 156.273C247.834 149.08 244.404 142.995 239.725 141.885C237.719 141.409 235.21 140.457 233.567 142.733C230.811 146.549 236.715 149.502 232.229 152.888C228.822 155.459 225.245 158.613 222.167 155.691C219.089 152.77 220.836 148.202 221.666 144.266C222.557 140.034 225.549 137.928 227.184 133.792C228.689 129.983 226.337 127.633 224.676 126.175C222.116 123.928 219.621 125.285 216.178 125.808C212.216 126.409 211.24 129.352 208.51 130.885M266.561 180.391C266.561 182.93 262.994 192.215 262.994 192.215M266.561 180.391C266.561 180.391 284.841 184.622 286.178 185.468M193.841 120.73C193.606 117.895 193.025 115.096 190.764 113.114C188.067 110.748 185.045 107.608 181.847 108.459C176.669 109.839 177.746 118.06 172.503 116.922C170.377 116.46 168.126 114.67 166.688 113.114C163.422 109.581 168.992 105.703 168.992 100.467C168.992 94.9143 164.702 91.0444 159.108 89.4187C154.7 88.1377 151.83 88.1474 147.922 90.4689C142.18 93.8807 147.23 102.971 140.828 105.074C137.866 106.047 137.106 105.497 132.357 105.497C124.344 105.497 122.492 109.624 119.872 117.768C117.321 125.699 127.452 134.27 122.102 135.539C115.556 137.092 109.618 130.885 103.821 131.731C98.9722 132.439 95.538 135.85 96.2517 140.457C97.0629 145.694 101.77 143.79 102.93 148.233C104.415 153.922 99.2691 159.1 93.5667 161.35C88.7434 163.253 84.1067 158.622 79.745 161.35C76.4777 163.393 75.9099 165.019 74.6852 168.546C73.9804 170.575 74.3566 173.169 74.6852 174.89M193.841 120.73C194.246 125.61 193.628 130.601 198.79 131.731C200.995 132.214 203.683 132.035 205.923 131.731C206.962 131.59 207.796 131.286 208.51 130.885M193.841 120.73C193.841 120.73 206.815 108.459 207.261 107.19C207.707 105.921 204.431 102.086 205.032 98.7275C205.796 94.4512 208.173 91.3014 212.611 90.265C217.526 89.1172 222.25 91.3344 224.204 95.7656C226.096 100.058 220.191 106.767 220.637 107.19C221.083 107.613 227.461 101.496 232.675 101.689C236.88 101.845 240.811 102.257 242.484 105.921C243.978 109.194 242.368 111.856 240.255 114.806C235.726 121.13 220.637 116.499 219.745 116.922C218.853 117.345 208.51 130.885 208.51 130.885M74.6852 174.89C74.6852 174.89 56.1144 181.66 54.3309 183.353M54.3309 183.353C52.68 184.919 40.7131 222.383 38.9441 227.941C38.8097 228.363 38.9686 228.792 39.3374 229.038C107.64 274.524 263.781 264.127 299.626 225.231C299.867 224.97 299.938 224.627 299.828 224.289C298.322 219.659 287.423 186.256 286.178 185.468M54.3309 183.353C54.3309 183.353 62.8023 192.433 84.6495 198.162C118.535 207.048 164.013 204.932 164.013 204.932M286.178 185.468C262.911 192.982 248.938 195.824 223.312 199.855M110.063 184.199C110.063 184.199 109.618 179.545 117.197 174.89C120.139 173.084 112.413 170.518 113.185 167.274C113.73 164.983 114.984 163.67 117.197 162.62C119.872 161.35 129.235 163.043 132.357 161.35C135.56 159.613 135.604 156.387 135.478 152.888C135.363 149.698 132.799 148.348 133.694 145.271C135.091 140.469 145.732 144.002 145.732 144.002M150.637 122.846C150.637 122.846 156.125 119.966 155.987 116.922C155.911 115.25 152.662 116.181 150.637 115.653C147.725 114.893 145.732 113.114 145.732 113.114M179.618 135.539C179.618 135.539 172.881 130.161 168.025 130.885C164.541 131.405 164.54 133.794 162.229 136.809C160.11 139.573 158.067 142.931 160.892 144.425C164.592 146.382 166.323 140.812 170.255 142.309C173.226 143.441 175.605 144.848 175.605 148.656C175.605 151.3 172.919 152.981 174.713 155.003C176.844 157.405 180.839 152.789 183.185 155.003C185.657 157.337 182.739 163.466 182.739 163.466M153.312 176.16C153.312 176.16 155.438 179.653 155.095 182.93C154.833 185.434 151.932 187.226 152.42 189.7C153.292 194.118 161.12 185.6 165.796 186.315C169.57 186.892 169.61 190.766 173.376 191.392C175.262 191.706 176.517 192.102 178.28 191.392C181.292 190.18 181.847 184.199 181.847 184.199M197.452 172.351C198.522 172.351 202.059 173.621 203.248 174.89C204.437 176.16 197.627 181.734 199.681 185.468C202.891 191.302 213.949 176.16 213.949 176.16M58.3437 210.632C56.9837 213.069 56.3536 214.453 55.6685 216.979M60.573 223.749C59.2282 225.745 58.7686 226.818 58.3437 228.627M74.6852 216.979C73.9548 219.748 73.4641 221.251 72.1654 223.749" stroke="#000000" stroke-width="5" stroke-linecap="round"/>
</svg>